# Blender v2.76 (sub 0) OBJ File: ''
# www.blender.org
v 10.884661 1.514575 -12.673516
v 10.884661 1.514575 7.326483
v -9.115341 1.514575 7.326481
v -9.115336 1.514575 -12.673521
v 10.884665 2.014575 -12.673512
v 10.884653 2.014575 7.326488
v -9.115344 2.014575 7.326479
v -9.115339 2.014575 -12.673517
vt 1.000000 0.000000
vt 0.231103 0.476034
vt 0.000000 1.000000
vt 1.000000 1.000000
vt 0.000000 0.000000
vn 0.000000 -1.000000 0.000000
vn 0.000000 1.000000 0.000000
vn 1.000000 0.000000 0.000000
vn -0.000000 0.000000 1.000000
vn -1.000000 -0.000000 -0.000000
vn 0.000000 0.000000 -1.000000
s off
f 2/1/1 3/2/1 4/3/1
f 8/1/2 7/4/2 6/3/2
f 5/1/3 6/4/3 2/3/3
f 6/1/4 7/4/4 3/3/4
f 7/1/5 8/4/5 4/3/5
f 1/1/6 4/4/6 8/3/6
f 1/5/1 2/1/1 4/3/1
f 5/5/2 8/1/2 6/3/2
f 1/5/3 5/1/3 2/3/3
f 2/5/4 6/1/4 3/3/4
f 3/5/5 7/1/5 4/3/5
f 5/5/6 1/1/6 8/3/6
v 10.884661 1.514575 -12.673516
v 10.884661 1.514575 7.326483
v -9.115341 1.514575 7.326481
v -9.115336 1.514575 -12.673521
v 10.884665 2.014575 -12.673512
v 10.884653 2.014575 7.326488
v -9.115344 2.014575 7.326479
v -9.115339 2.014575 -12.673517
vt 0.520916 0.479084
vt 0.520916 0.520916
vt 0.479084 0.520916
vt 1.000000 0.000000
vt 1.000000 1.000000
vt 0.000000 1.000000
vt 0.507955 0.492045
vt 0.507955 0.507955
vt 0.492045 0.507955
vt 0.479084 0.479084
vt 0.000000 0.000000
vt 0.492045 0.492045
vn 0.000000 -1.000000 0.000000
vn 0.000000 1.000000 0.000000
vn 1.000000 0.000000 0.000000
vn -0.000000 0.000000 1.000000
vn -1.000000 -0.000000 -0.000000
vn 0.000000 0.000000 -1.000000
s off
f 10/6/7 11/7/7 12/8/7
f 16/9/8 15/10/8 14/11/8
f 13/12/9 14/13/9 10/14/9
f 14/9/10 15/10/10 11/11/10
f 15/9/11 16/10/11 12/11/11
f 9/9/12 12/10/12 16/11/12
f 9/15/7 10/6/7 12/8/7
f 13/16/8 16/9/8 14/11/8
f 9/17/9 13/12/9 10/14/9
f 10/16/10 14/9/10 11/11/10
f 11/16/11 15/9/11 12/11/11
f 13/16/12 9/9/12 16/11/12
