# Blender v2.76 (sub 0) OBJ File: 'Board.blend'
# www.blender.org
v -5.744717 0.428959 4.961641
v -5.744717 0.678959 4.961641
v -5.744717 0.428959 -5.038359
v -5.744717 0.678959 -5.038359
v 4.255283 0.428959 4.961641
v 4.255283 0.678959 4.961641
v 4.255283 0.428959 -5.038359
v 4.255283 0.678959 -5.038359
vt 0.306796 0.276139
vt 0.333930 0.276139
vt 0.333930 0.303272
vt 0.346437 0.312847
vt 0.346437 0.288506
vt 0.370779 0.288506
vt 0.296626 0.301547
vt 0.317237 0.301547
vt 0.317237 0.322159
vt 0.281522 0.292762
vt 0.281522 0.281317
vt 0.292968 0.281317
vt 0.336369 0.309278
vt 0.336369 0.336369
vt 0.309278 0.336369
vt 0.996216 0.998883
vt 0.001118 0.998882
vt 0.001118 0.003784
vt 0.306796 0.303272
vt 0.370779 0.312847
vt 0.296626 0.322159
vt 0.292968 0.292762
vt 0.309278 0.309278
vt 0.996216 0.003784
vn -1.000000 0.000000 0.000000
vn 0.000000 0.000000 -1.000000
vn 1.000000 0.000000 0.000000
vn 0.000000 0.000000 1.000000
vn 0.000000 -1.000000 0.000000
vn 0.000000 1.000000 0.000000
s off
f 4/1/1 3/2/1 1/3/1
f 8/4/2 7/5/2 3/6/2
f 6/7/3 5/8/3 7/9/3
f 2/10/4 1/11/4 5/12/4
f 3/13/5 7/14/5 5/15/5
f 8/16/6 4/17/6 2/18/6
f 2/19/1 4/1/1 1/3/1
f 4/20/2 8/4/2 3/6/2
f 8/21/3 6/7/3 7/9/3
f 6/22/4 2/10/4 5/12/4
f 1/23/5 3/13/5 5/15/5
f 6/24/6 8/16/6 2/18/6
